/* XPM */
static char *icon_xpm[] = {
/* columns rows colors chars-per-pixel */
"16 16 2 1 ",
"  c #B4E265",
". c None",
/* pixels */
"................",
"................",
"..        ......",
"..        ......",
"..  ....  ......",
"..  ....      ..",
"..  ....      ..",
"..  ........  ..",
"..  ........  ..",
"..      ....  ..",
"..      ....  ..",
"......  ....  ..",
"......        ..",
"......        ..",
"................",
"................"
};
